<?xml version="1.0" encoding="UTF-8" standalone="no"?>
<!--
 *  Licensed to the Apache Software Foundation (ASF) under one
 *  or more contributor license agreements.  See the NOTICE file
 *  distributed with this work for additional information
 *  regarding copyright ownership.  The ASF licenses this file
 *  to you under the Apache License, Version 2.0 (the
 *  "License"); you may not use this file except in compliance
 *  with the License.  You may obtain a copy of the License at
 *
 *       http://www.apache.org/licenses/LICENSE-2.0
 *
 *  Unless required by applicable law or agreed to in writing, software
 *  distributed under the License is distributed on an "AS IS" BASIS,
 *  WITHOUT WARRANTIES OR CONDITIONS OF ANY KIND, either express or implied.
 *  See the License for the specific language governing permissions and
 *  limitations under the License.
 *
 *
 -->

<svg
   xmlns:dc="http://purl.org/dc/elements/1.1/"
   xmlns:cc="http://creativecommons.org/ns#"
   xmlns:rdf="http://www.w3.org/1999/02/22-rdf-syntax-ns#"
   xmlns="http://www.w3.org/2000/svg"
   xmlns:sodipodi="http://sodipodi.sourceforge.net/DTD/sodipodi-0.dtd"
   xmlns:inkscape="http://www.inkscape.org/namespaces/inkscape"
   version="1.1"
   id="Layer_1"
   x="0px"
   y="0px"
   width="612px"
   height="792px"
   viewBox="0 0 612 792"
   enable-background="new 0 0 612 792"
   xml:space="preserve"
   sodipodi:docname="logo.svg"
   inkscape:version="0.92.1 r15371"
   inkscape:export-filename="/home/niclas/dev/polygene/java/artwork/logo-514x300.png"
   inkscape:export-xdpi="221.71413"
   inkscape:export-ydpi="221.71413"><metadata
     id="metadata4663"><rdf:RDF><cc:Work
         rdf:about=""><dc:format>image/svg+xml</dc:format><dc:type
           rdf:resource="http://purl.org/dc/dcmitype/StillImage" /><dc:title /></cc:Work></rdf:RDF></metadata><defs
     id="defs4661" /><sodipodi:namedview
     pagecolor="#ffffff"
     bordercolor="#666666"
     borderopacity="1"
     objecttolerance="10"
     gridtolerance="10"
     guidetolerance="10"
     inkscape:pageopacity="0"
     inkscape:pageshadow="2"
     inkscape:window-width="1920"
     inkscape:window-height="1015"
     id="namedview4659"
     showgrid="false"
     inkscape:zoom="1.0239899"
     inkscape:cx="19.864359"
     inkscape:cy="384.28113"
     inkscape:window-x="0"
     inkscape:window-y="0"
     inkscape:window-maximized="1"
     inkscape:current-layer="g4622" /><g
     id="g4622"><text
       xml:space="preserve"
       style="font-style:normal;font-weight:normal;font-size:40px;line-height:35.7921257px;font-family:sans-serif;letter-spacing:0px;word-spacing:0px;fill:#ed1c24;fill-opacity:1;stroke:none"
       x="146.01727"
       y="382.86316"
       id="text4789"><tspan
         sodipodi:role="line"
         x="146.01727"
         y="382.86316"
         style="font-style:normal;font-variant:normal;font-weight:normal;font-stretch:normal;font-size:32px;line-height:35.7921257px;font-family:Asap;-inkscape-font-specification:Asap;fill:#969696;fill-opacity:1"
         id="tspan4807">A<tspan
   style="line-height:35.7921257px"
   id="tspan4101">pache</tspan></tspan><tspan
         sodipodi:role="line"
         x="146.01727"
         y="422.01538"
         style="font-style:normal;font-variant:normal;font-weight:bold;font-stretch:normal;font-size:42.66666794px;line-height:35.7921257px;font-family:Asap;-inkscape-font-specification:'Asap Bold';fill:#ed1c24;fill-opacity:1"
         id="tspan4099"><tspan
   style="line-height:35.7921257px"
   id="tspan4103">Polyge</tspan>ne</tspan></text>
</g><path
     fill-rule="evenodd"
     clip-rule="evenodd"
     fill="#ED1C24"
     d="M111.935,331.052c1.251,0,2.266,1.014,2.266,2.266  s-1.014,2.266-2.266,2.266s-2.266-1.014-2.266-2.266S110.684,331.052,111.935,331.052z"
     id="path4624" /><path
     fill-rule="evenodd"
     clip-rule="evenodd"
     fill="#ED1C24"
     d="M106.648,338.604c1.947,0,3.524,1.578,3.524,3.524  c0,1.947-1.578,3.524-3.524,3.524c-1.946,0-3.524-1.578-3.524-3.524C103.124,340.182,104.702,338.604,106.648,338.604z"
     id="path4626" /><path
     fill-rule="evenodd"
     clip-rule="evenodd"
     fill="#ED1C24"
     d="M101.614,348.17c2.78,0,5.035,2.254,5.035,5.035  c0,2.78-2.254,5.035-5.035,5.035s-5.035-2.254-5.035-5.035C96.579,350.424,98.833,348.17,101.614,348.17z"
     id="path4628" /><path
     fill-rule="evenodd"
     clip-rule="evenodd"
     fill="#ED1C24"
     d="M103.376,361.764c3.198,0,5.79,2.593,5.79,5.79  c0,3.198-2.592,5.79-5.79,5.79s-5.79-2.592-5.79-5.79C97.586,364.356,100.178,361.764,103.376,361.764z"
     id="path4630" /><path
     fill-rule="evenodd"
     clip-rule="evenodd"
     fill="#ED1C24"
     d="M110.173,378.378c2.78,0,5.035,2.254,5.035,5.035  c0,2.781-2.254,5.035-5.035,5.035s-5.035-2.253-5.035-5.035C105.138,380.632,107.393,378.378,110.173,378.378z"
     id="path4632" /><path
     fill-rule="evenodd"
     clip-rule="evenodd"
     fill="#ED1C24"
     d="M122.004,391.972c2.641,0,4.783,2.142,4.783,4.783  c0,2.641-2.142,4.783-4.783,4.783s-4.783-2.142-4.783-4.783C117.222,394.114,119.363,391.972,122.004,391.972z"
     id="path4634" /><path
     fill-rule="evenodd"
     clip-rule="evenodd"
     fill="#ED1C24"
     d="M130.563,404.559c2.641,0,4.783,2.143,4.783,4.783  c0,2.642-2.142,4.783-4.783,4.783s-4.783-2.142-4.783-4.783C125.78,406.701,127.922,404.559,130.563,404.559z"
     id="path4636" /><path
     fill-rule="evenodd"
     clip-rule="evenodd"
     fill="#ED1C24"
     d="M133.081,420.167c2.92,0,5.287,2.366,5.287,5.286  s-2.367,5.286-5.287,5.286c-2.919,0-5.286-2.366-5.286-5.286S130.161,420.167,133.081,420.167z"
     id="path4638" /><path
     fill-rule="evenodd"
     clip-rule="evenodd"
     fill="#ED1C24"
     d="M128.55,434.768c2.641,0,4.783,2.142,4.783,4.783  c0,2.641-2.142,4.782-4.783,4.782c-2.642,0-4.783-2.142-4.783-4.782C123.767,436.909,125.908,434.768,128.55,434.768z"
     id="path4640" /><path
     fill-rule="evenodd"
     clip-rule="evenodd"
     fill="#ED1C24"
     d="M120.746,446.348c1.947,0,3.524,1.577,3.524,3.523  c0,1.947-1.578,3.524-3.524,3.524c-1.946,0-3.524-1.577-3.524-3.524C117.222,447.925,118.799,446.348,120.746,446.348z"
     id="path4642" /><path
     fill-rule="evenodd"
     clip-rule="evenodd"
     fill="#ED1C24"
     d="M112.942,455.41c1.529,0,2.769,1.239,2.769,2.769  s-1.24,2.77-2.769,2.77s-2.769-1.24-2.769-2.77S111.413,455.41,112.942,455.41z"
     id="path4644" /><path
     fill-rule="evenodd"
     clip-rule="evenodd"
     fill="#ED1C24"
     d="M114.452,380.393h13.594c1.251,0,2.266,1.014,2.266,2.266  c0,1.251-1.014,2.266-2.266,2.266h-13.594c-1.251,0-2.266-1.015-2.266-2.266C112.187,381.407,113.201,380.393,114.452,380.393z"
     id="path4646" /><path
     fill-rule="evenodd"
     clip-rule="evenodd"
     fill="#ED1C24"
     d="M108.663,365.288h25.173c1.391,0,2.518,1.127,2.518,2.518  s-1.127,2.517-2.518,2.517h-25.173c-1.391,0-2.518-1.127-2.518-2.517S107.272,365.288,108.663,365.288z"
     id="path4648" /><path
     fill-rule="evenodd"
     clip-rule="evenodd"
     fill="#ED1C24"
     d="M106.397,350.688h17.622c1.251,0,2.266,1.014,2.266,2.266  s-1.015,2.266-2.266,2.266h-17.622c-1.251,0-2.266-1.014-2.266-2.266S105.146,350.688,106.397,350.688z"
     id="path4650" /><path
     fill-rule="evenodd"
     clip-rule="evenodd"
     fill="#ED1C24"
     d="M110.676,437.788h17.118c1.112,0,2.014,0.901,2.014,2.014  s-0.901,2.015-2.014,2.015h-17.118c-1.112,0-2.014-0.902-2.014-2.015S109.564,437.788,110.676,437.788z"
     id="path4652" /><path
     fill-rule="evenodd"
     clip-rule="evenodd"
     fill="#ED1C24"
     d="M101.362,423.188h31.215c1.251,0,2.266,1.127,2.266,2.518  s-1.014,2.518-2.266,2.518h-31.215c-1.251,0-2.266-1.127-2.266-2.518S100.111,423.188,101.362,423.188z"
     id="path4654" /><path
     fill-rule="evenodd"
     clip-rule="evenodd"
     fill="#ED1C24"
     d="M112.438,408.083h16.615c0.973,0,1.762,0.902,1.762,2.015  c0,1.111-0.789,2.014-1.762,2.014h-16.615c-0.973,0-1.762-0.902-1.762-2.014C110.676,408.985,111.465,408.083,112.438,408.083z"
     id="path4656" /></svg>