<?xml version="1.0" encoding="UTF-8" standalone="no"?>
<!--
 *  Licensed to the Apache Software Foundation (ASF) under one
 *  or more contributor license agreements.  See the NOTICE file
 *  distributed with this work for additional information
 *  regarding copyright ownership.  The ASF licenses this file
 *  to you under the Apache License, Version 2.0 (the
 *  "License"); you may not use this file except in compliance
 *  with the License.  You may obtain a copy of the License at
 *
 *       http://www.apache.org/licenses/LICENSE-2.0
 *
 *  Unless required by applicable law or agreed to in writing, software
 *  distributed under the License is distributed on an "AS IS" BASIS,
 *  WITHOUT WARRANTIES OR CONDITIONS OF ANY KIND, either express or implied.
 *  See the License for the specific language governing permissions and
 *  limitations under the License.
 *
 *
 -->

<svg
   xmlns:dc="http://purl.org/dc/elements/1.1/"
   xmlns:cc="http://creativecommons.org/ns#"
   xmlns:rdf="http://www.w3.org/1999/02/22-rdf-syntax-ns#"
   xmlns="http://www.w3.org/2000/svg"
   xmlns:xlink="http://www.w3.org/1999/xlink"
   xmlns:sodipodi="http://sodipodi.sourceforge.net/DTD/sodipodi-0.dtd"
   xmlns:inkscape="http://www.inkscape.org/namespaces/inkscape"
   version="1.1"
   id="Layer_1"
   x="0px"
   y="0px"
   width="612px"
   height="792px"
   viewBox="0 0 612 792"
   enable-background="new 0 0 612 792"
   xml:space="preserve"
   sodipodi:docname="pb-polygene.svg"
   inkscape:version="0.92.1 r15371"><metadata
     id="metadata4663"><rdf:RDF><cc:Work
         rdf:about=""><dc:format>image/svg+xml</dc:format><dc:type
           rdf:resource="http://purl.org/dc/dcmitype/StillImage" /><dc:title></dc:title></cc:Work></rdf:RDF></metadata><defs
     id="defs4661" /><sodipodi:namedview
     pagecolor="#ffffff"
     bordercolor="#666666"
     borderopacity="1"
     objecttolerance="10"
     gridtolerance="10"
     guidetolerance="10"
     inkscape:pageopacity="0"
     inkscape:pageshadow="2"
     inkscape:window-width="1920"
     inkscape:window-height="1015"
     id="namedview4659"
     showgrid="false"
     inkscape:zoom="1.0298431"
     inkscape:cx="-3.9119735"
     inkscape:cy="435.15811"
     inkscape:window-x="0"
     inkscape:window-y="0"
     inkscape:window-maximized="1"
     inkscape:current-layer="Layer_1" /><g
     id="g4622" /><g
     id="g5744"><g
       id="g5702"><g
         id="g5666"><circle
           r="133.79037"
           cy="361.66492"
           cx="286.62393"
           id="path5467"
           style="fill:#ffffff;fill-opacity:1;stroke:#626262;stroke-width:46.97999954;stroke-miterlimit:4;stroke-dasharray:none;stroke-opacity:1" /><circle
           r="9.2774353"
           cy="271.3096"
           cx="382.06165"
           id="path5471"
           style="fill:#ffffff;fill-opacity:1;stroke:#f7f7f7;stroke-width:0;stroke-miterlimit:4;stroke-dasharray:none;stroke-opacity:1" /><circle
           r="9.2774353"
           cy="455.28973"
           cx="188.24399"
           id="path5471-3"
           style="fill:#ffffff;fill-opacity:1;stroke:#f7f7f7;stroke-width:0;stroke-miterlimit:4;stroke-dasharray:none;stroke-opacity:1" /></g><g
         id="g5682"><text
           id="text5490"
           style="font-style:normal;font-variant:normal;font-weight:normal;font-stretch:normal;font-size:40px;line-height:25px;font-family:'URW Gothic L';-inkscape-font-specification:'URW Gothic L';letter-spacing:0px;word-spacing:0px;fill:#e0e0e0;fill-opacity:1;stroke:none"
           xml:space="preserve"><textPath
             style="-inkscape-font-specification:'Asap Bold';font-family:Asap;font-weight:bold;font-style:normal;font-stretch:normal;font-variant:normal"
             id="textPath5519"
             xlink:href="#path5502">Powered<tspan
   id="tspan5558"
   style="font-size:16px;-inkscape-font-specification:'Asap Bold';font-family:Asap;font-weight:bold;font-style:normal;font-stretch:normal;font-variant:normal"> </tspan>By</textPath></text>
<path
           sodipodi:nodetypes="cc"
           inkscape:connector-curvature="0"
           id="path5502"
           d="m 167.10354,344.8033 c 6.1347,-81.58452 97.82134,-125.96599 163.03355,-96.84459"
           style="fill:none;stroke:none;stroke-width:1.01689899px;stroke-linecap:butt;stroke-linejoin:miter;stroke-opacity:1" /></g><g
         id="g5676"><path
           sodipodi:nodetypes="cc"
           inkscape:connector-curvature="0"
           id="path5522"
           d="m 325.25005,506.123 c 68.24792,-28.35979 99.08956,-72.03145 107.86721,-121.19716"
           style="fill:none;stroke:none;stroke-width:0.85567302px;stroke-linecap:butt;stroke-linejoin:miter;stroke-opacity:1" /><text
           id="text5526"
           style="font-style:normal;font-weight:normal;font-size:40px;line-height:25px;font-family:sans-serif;letter-spacing:0px;word-spacing:0px;fill:#e0e0e0;fill-opacity:1;stroke:none"
           xml:space="preserve"><textPath
             style="font-style:normal;font-variant:normal;font-weight:bold;font-stretch:normal;font-family:Asap;-inkscape-font-specification:'Asap Bold';fill:#e0e0e0;fill-opacity:1"
             id="textPath5534"
             xlink:href="#path5522">A<tspan
   id="tspan5538"
   style="font-size:8px;-inkscape-font-specification:'Asap Bold';font-family:Asap;font-weight:bold;font-style:normal;font-stretch:normal;font-variant:normal"> </tspan>p<tspan
   id="tspan5540"
   style="font-size:8px;-inkscape-font-specification:'Asap Bold';font-family:Asap;font-weight:bold;font-style:normal;font-stretch:normal;font-variant:normal"> </tspan>a<tspan
   id="tspan5544"
   style="font-size:8px;-inkscape-font-specification:'Asap Bold';font-family:Asap;font-weight:bold;font-style:normal;font-stretch:normal;font-variant:normal"> </tspan>c<tspan
   id="tspan5554"
   style="font-size:8px;-inkscape-font-specification:'Asap Bold';font-family:Asap;font-weight:bold;font-style:normal;font-stretch:normal;font-variant:normal"> </tspan>h<tspan
   id="tspan5556"
   style="font-size:8px;-inkscape-font-specification:'Asap Bold';font-family:Asap;font-weight:bold;font-style:normal;font-stretch:normal;font-variant:normal"> </tspan>e</textPath></text>
</g></g><g
       transform="matrix(1.1556585,0,0,1.1556585,150.63737,-114.63742)"
       id="g5465"><text
         xml:space="preserve"
         style="font-style:normal;font-weight:normal;font-size:40px;line-height:25px;font-family:sans-serif;letter-spacing:0px;word-spacing:0px;fill:#ed1c24;fill-opacity:1;stroke:none"
         x="117.25769"
         y="487.59067"
         id="text4789"><tspan
           sodipodi:role="line"
           x="117.25769"
           y="487.59067"
           style="font-style:normal;font-variant:normal;font-weight:bold;font-stretch:normal;font-size:26.66666603px;font-family:Asap;-inkscape-font-specification:'Asap Bold';text-align:center;text-anchor:middle;fill:#ed1c24;fill-opacity:1"
           id="tspan5363">Polygene</tspan></text>
<g
         id="g5382"
         transform="translate(0.10419362)"><path
           id="path4624"
           d="m 111.935,331.052 c 1.251,0 2.266,1.014 2.266,2.266 0,1.252 -1.014,2.266 -2.266,2.266 -1.252,0 -2.266,-1.014 -2.266,-2.266 0,-1.252 1.015,-2.266 2.266,-2.266 z"
           inkscape:connector-curvature="0"
           style="clip-rule:evenodd;fill:#ed1c24;fill-rule:evenodd" /><path
           id="path4626"
           d="m 106.648,338.604 c 1.947,0 3.524,1.578 3.524,3.524 0,1.947 -1.578,3.524 -3.524,3.524 -1.946,0 -3.524,-1.578 -3.524,-3.524 0,-1.946 1.578,-3.524 3.524,-3.524 z"
           inkscape:connector-curvature="0"
           style="clip-rule:evenodd;fill:#ed1c24;fill-rule:evenodd" /><path
           id="path4628"
           d="m 101.614,348.17 c 2.78,0 5.035,2.254 5.035,5.035 0,2.78 -2.254,5.035 -5.035,5.035 -2.781,0 -5.035,-2.254 -5.035,-5.035 0,-2.781 2.254,-5.035 5.035,-5.035 z"
           inkscape:connector-curvature="0"
           style="clip-rule:evenodd;fill:#ed1c24;fill-rule:evenodd" /><path
           id="path4630"
           d="m 103.376,361.764 c 3.198,0 5.79,2.593 5.79,5.79 0,3.198 -2.592,5.79 -5.79,5.79 -3.198,0 -5.79,-2.592 -5.79,-5.79 0,-3.198 2.592,-5.79 5.79,-5.79 z"
           inkscape:connector-curvature="0"
           style="clip-rule:evenodd;fill:#ed1c24;fill-rule:evenodd" /><path
           id="path4632"
           d="m 110.173,378.378 c 2.78,0 5.035,2.254 5.035,5.035 0,2.781 -2.254,5.035 -5.035,5.035 -2.781,0 -5.035,-2.253 -5.035,-5.035 0,-2.781 2.255,-5.035 5.035,-5.035 z"
           inkscape:connector-curvature="0"
           style="clip-rule:evenodd;fill:#ed1c24;fill-rule:evenodd" /><path
           id="path4634"
           d="m 122.004,391.972 c 2.641,0 4.783,2.142 4.783,4.783 0,2.641 -2.142,4.783 -4.783,4.783 -2.641,0 -4.783,-2.142 -4.783,-4.783 10e-4,-2.641 2.142,-4.783 4.783,-4.783 z"
           inkscape:connector-curvature="0"
           style="clip-rule:evenodd;fill:#ed1c24;fill-rule:evenodd" /><path
           id="path4636"
           d="m 130.563,404.559 c 2.641,0 4.783,2.143 4.783,4.783 0,2.642 -2.142,4.783 -4.783,4.783 -2.641,0 -4.783,-2.142 -4.783,-4.783 0,-2.641 2.142,-4.783 4.783,-4.783 z"
           inkscape:connector-curvature="0"
           style="clip-rule:evenodd;fill:#ed1c24;fill-rule:evenodd" /><path
           id="path4638"
           d="m 133.081,420.167 c 2.92,0 5.287,2.366 5.287,5.286 0,2.92 -2.367,5.286 -5.287,5.286 -2.919,0 -5.286,-2.366 -5.286,-5.286 0,-2.92 2.366,-5.286 5.286,-5.286 z"
           inkscape:connector-curvature="0"
           style="clip-rule:evenodd;fill:#ed1c24;fill-rule:evenodd" /><path
           id="path4640"
           d="m 128.55,434.768 c 2.641,0 4.783,2.142 4.783,4.783 0,2.641 -2.142,4.782 -4.783,4.782 -2.642,0 -4.783,-2.142 -4.783,-4.782 0,-2.642 2.141,-4.783 4.783,-4.783 z"
           inkscape:connector-curvature="0"
           style="clip-rule:evenodd;fill:#ed1c24;fill-rule:evenodd" /><path
           id="path4642"
           d="m 120.746,446.348 c 1.947,0 3.524,1.577 3.524,3.523 0,1.947 -1.578,3.524 -3.524,3.524 -1.946,0 -3.524,-1.577 -3.524,-3.524 0,-1.946 1.577,-3.523 3.524,-3.523 z"
           inkscape:connector-curvature="0"
           style="clip-rule:evenodd;fill:#ed1c24;fill-rule:evenodd" /><path
           id="path4644"
           d="m 112.942,455.41 c 1.529,0 2.769,1.239 2.769,2.769 0,1.53 -1.24,2.77 -2.769,2.77 -1.529,0 -2.769,-1.24 -2.769,-2.77 0,-1.53 1.24,-2.769 2.769,-2.769 z"
           inkscape:connector-curvature="0"
           style="clip-rule:evenodd;fill:#ed1c24;fill-rule:evenodd" /><path
           id="path4646"
           d="m 114.452,380.393 h 13.594 c 1.251,0 2.266,1.014 2.266,2.266 0,1.251 -1.014,2.266 -2.266,2.266 h -13.594 c -1.251,0 -2.266,-1.015 -2.266,-2.266 10e-4,-1.252 1.015,-2.266 2.266,-2.266 z"
           inkscape:connector-curvature="0"
           style="clip-rule:evenodd;fill:#ed1c24;fill-rule:evenodd" /><path
           id="path4648"
           d="m 108.663,365.288 h 25.173 c 1.391,0 2.518,1.127 2.518,2.518 0,1.391 -1.127,2.517 -2.518,2.517 h -25.173 c -1.391,0 -2.518,-1.127 -2.518,-2.517 0,-1.39 1.127,-2.518 2.518,-2.518 z"
           inkscape:connector-curvature="0"
           style="clip-rule:evenodd;fill:#ed1c24;fill-rule:evenodd" /><path
           id="path4650"
           d="m 106.397,350.688 h 17.622 c 1.251,0 2.266,1.014 2.266,2.266 0,1.252 -1.015,2.266 -2.266,2.266 h -17.622 c -1.251,0 -2.266,-1.014 -2.266,-2.266 0,-1.252 1.015,-2.266 2.266,-2.266 z"
           inkscape:connector-curvature="0"
           style="clip-rule:evenodd;fill:#ed1c24;fill-rule:evenodd" /><path
           id="path4652"
           d="m 110.676,437.788 h 17.118 c 1.112,0 2.014,0.901 2.014,2.014 0,1.113 -0.901,2.015 -2.014,2.015 h -17.118 c -1.112,0 -2.014,-0.902 -2.014,-2.015 0,-1.113 0.902,-2.014 2.014,-2.014 z"
           inkscape:connector-curvature="0"
           style="clip-rule:evenodd;fill:#ed1c24;fill-rule:evenodd" /><path
           id="path4654"
           d="m 101.362,423.188 h 31.215 c 1.251,0 2.266,1.127 2.266,2.518 0,1.391 -1.014,2.518 -2.266,2.518 h -31.215 c -1.251,0 -2.266,-1.127 -2.266,-2.518 0,-1.391 1.015,-2.518 2.266,-2.518 z"
           inkscape:connector-curvature="0"
           style="clip-rule:evenodd;fill:#ed1c24;fill-rule:evenodd" /><path
           id="path4656"
           d="m 112.438,408.083 h 16.615 c 0.973,0 1.762,0.902 1.762,2.015 0,1.111 -0.789,2.014 -1.762,2.014 h -16.615 c -0.973,0 -1.762,-0.902 -1.762,-2.014 0,-1.113 0.789,-2.015 1.762,-2.015 z"
           inkscape:connector-curvature="0"
           style="clip-rule:evenodd;fill:#ed1c24;fill-rule:evenodd" /></g></g></g></svg>